<?xml version="1.0" standalone="no"?>
<!DOCTYPE svg PUBLIC "-//W3C//DTD SVG 20010904//EN"
 "http://www.w3.org/TR/2001/REC-SVG-20010904/DTD/svg10.dtd">
<svg version="1.0" xmlns="http://www.w3.org/2000/svg"
 width="762.000000pt" height="762.000000pt" viewBox="0 0 762.000000 762.000000"
 preserveAspectRatio="xMidYMid meet">
<metadata>
Created by potrace 1.11, written by Peter Selinger 2001-2013
</metadata>
<g transform="translate(0.000000,762.000000) scale(0.100000,-0.100000)"
fill="#000000" stroke="none">
<path d="M3356 7140 c-63 -33 -100 -91 -122 -187 -16 -72 -21 -198 -11 -283
11 -90 18 -133 22 -140 3 -4 7 -25 11 -46 20 -128 156 -441 245 -564 129 -179
174 -225 369 -381 148 -119 267 -249 355 -384 51 -80 125 -221 125 -239 0 -9
5 -16 10 -16 6 0 10 -10 10 -23 0 -13 4 -27 9 -33 17 -17 57 -168 56 -209 -2
-55 -15 -95 -31 -95 -8 0 -14 -4 -14 -10 0 -5 -20 -10 -44 -10 -95 0 -205 93
-275 231 -22 44 -38 79 -34 79 3 0 0 6 -6 14 -10 12 -8 17 8 26 12 6 21 8 21
4 0 -3 6 -1 13 5 8 6 17 8 20 4 4 -3 13 0 22 7 8 7 15 10 15 7 0 -7 75 23 126
50 l32 16 -41 76 c-22 41 -44 80 -48 86 -5 5 -35 46 -68 90 -78 105 -219 249
-316 320 -22 17 -42 32 -45 35 -3 3 -26 22 -51 42 -70 56 -129 116 -184 188
-28 36 -53 67 -57 68 -5 2 -8 9 -8 15 0 6 -9 20 -19 31 -46 51 -202 413 -193
449 4 14 -9 7 -35 -19 -38 -38 -103 -130 -136 -190 -32 -61 -80 -184 -71 -184
4 0 2 -6 -4 -12 -31 -39 -36 -295 -8 -424 25 -116 121 -300 204 -389 39 -42
140 -126 188 -157 56 -36 192 -95 234 -102 14 -3 25 -5 25 -7 0 -1 9 -3 20 -5
11 -2 38 -6 60 -10 48 -7 83 -12 110 -13 15 -1 24 -12 34 -45 19 -65 64 -157
110 -224 53 -79 129 -145 210 -184 133 -65 285 -34 352 72 75 118 46 305 -93
585 -68 138 -81 159 -166 275 -76 104 -240 272 -328 335 -37 27 -80 62 -128
105 -49 44 -80 77 -147 158 -32 38 -97 139 -138 213 -84 154 -135 309 -168
504 -10 66 -9 223 2 273 28 120 95 125 163 12 19 -33 70 -171 78 -215 2 -11 6
-29 8 -40 20 -88 23 -79 -41 -100 -32 -10 -60 -20 -63 -20 -15 -5 -76 -34 -82
-40 -3 -4 -2 -21 4 -38 5 -18 10 -36 12 -42 9 -39 27 -84 67 -170 12 -27 22
-53 21 -57 -1 -5 3 -8 8 -8 6 0 10 -5 10 -11 0 -15 71 -128 128 -204 58 -77
155 -174 257 -256 82 -66 102 -84 202 -180 60 -58 145 -154 152 -171 1 -5 13
-20 25 -33 20 -22 121 -192 121 -205 0 -3 5 -13 11 -23 9 -15 13 -13 45 20
235 254 299 624 163 946 -32 76 -87 168 -124 209 -62 68 -148 149 -162 154
-10 3 -18 10 -18 15 0 5 -7 9 -15 9 -8 0 -15 5 -15 10 0 6 -5 10 -10 10 -6 0
-27 10 -48 23 -32 21 -149 69 -177 73 -5 1 -30 7 -55 14 -25 7 -88 14 -140 16
-52 2 -97 7 -100 12 -4 4 -19 58 -34 120 -49 203 -116 328 -208 390 -58 38
-145 39 -212 2z"/>
<path d="M4754 3931 c-211 -59 -356 -218 -422 -461 -16 -62 -31 -126 -48 -205
-9 -45 -79 -248 -97 -279 -6 -12 -12 -23 -12 -26 -1 -9 -65 -124 -80 -143 -13
-18 -15 -18 -47 5 -149 104 -259 218 -375 389 -120 178 -268 276 -473 316 -81
15 -265 5 -384 -22 -90 -20 -220 -74 -311 -129 -65 -40 -259 -178 -263 -188
-2 -4 -8 -8 -13 -8 -6 0 -39 -20 -75 -45 -35 -25 -66 -45 -69 -45 -3 0 -11 -5
-18 -10 -22 -19 -119 -80 -127 -80 -5 0 -10 -4 -12 -8 -4 -10 -155 -102 -168
-102 -4 0 -10 -4 -12 -8 -1 -5 -28 -22 -58 -39 l-55 -31 -40 21 c-96 53 -233
149 -309 217 -69 62 -172 171 -241 254 -22 27 -45 54 -50 60 -26 28 -125 176
-125 187 0 5 -4 9 -9 9 -5 0 -12 8 -16 18 -3 9 -12 25 -19 34 -12 17 -16 17
-44 2 -50 -24 -138 -118 -166 -176 -14 -29 -26 -72 -28 -94 l-2 -42 -59 42
c-32 22 -66 46 -75 51 -9 6 -27 20 -41 33 -14 12 -31 22 -38 22 -6 0 -13 4
-15 8 -5 12 -127 96 -132 91 -4 -4 -129 -220 -176 -304 -11 -20 -27 -47 -36
-59 -16 -26 -16 -26 146 -137 36 -24 69 -48 75 -52 5 -4 75 -52 155 -107 188
-128 236 -161 262 -182 12 -10 24 -18 27 -18 4 0 38 -22 76 -50 39 -27 77 -54
85 -60 141 -94 516 -355 518 -362 2 -4 8 -8 14 -8 5 0 46 -26 91 -58 109 -77
223 -155 245 -167 9 -5 19 -12 22 -15 5 -6 102 -74 280 -195 47 -32 216 -148
375 -259 160 -110 310 -213 335 -230 25 -16 47 -32 50 -35 3 -4 13 -10 22 -16
26 -15 468 -318 481 -330 7 -6 30 -22 52 -35 78 -47 79 -50 50 -106 -35 -69
-42 -155 -15 -199 28 -45 144 -94 235 -99 11 -1 25 -4 30 -8 12 -7 372 -3 401
5 12 3 37 8 55 11 96 15 172 59 188 109 21 64 -17 217 -53 217 -15 0 28 35
124 100 44 30 143 99 221 153 77 53 144 97 149 97 4 0 10 4 12 8 4 11 137 102
148 102 5 0 13 6 17 13 4 7 26 24 48 37 22 14 47 30 55 37 8 7 94 66 190 132
96 66 180 123 186 128 5 4 17 13 26 18 9 6 45 30 80 54 34 24 77 54 93 65 17
12 32 24 33 29 2 4 8 7 12 7 5 0 30 15 56 33 25 17 53 37 63 42 9 6 18 12 21
15 12 14 142 100 150 100 4 0 10 4 12 8 2 4 72 55 156 112 312 214 437 301
453 313 8 7 23 17 32 22 9 6 51 34 94 64 43 29 105 72 138 95 33 22 62 44 63
49 2 4 7 7 12 7 8 0 280 186 307 209 7 6 17 11 23 11 5 0 10 5 10 10 0 6 5 10
10 10 6 0 16 5 23 10 22 19 337 236 375 259 10 6 9 15 -5 42 -10 19 -20 36
-23 39 -5 5 -10 13 -52 89 -11 20 -42 73 -69 119 -27 45 -49 87 -49 92 0 19
-20 20 -47 3 -15 -10 -92 -64 -171 -120 -79 -57 -148 -103 -153 -103 -6 0 -9
8 -8 18 8 53 -31 139 -93 203 -42 44 -125 106 -131 98 -2 -2 -37 -55 -77 -116
-40 -62 -77 -113 -82 -113 -4 0 -8 -6 -8 -14 0 -8 -3 -16 -7 -18 -5 -1 -32
-32 -62 -68 -64 -78 -189 -209 -257 -268 -161 -142 -541 -344 -577 -308 -89
91 -177 290 -250 566 -8 30 -15 62 -15 70 0 8 -10 49 -21 90 -12 41 -23 81
-24 87 -2 7 -22 50 -45 95 -39 78 -138 198 -162 198 -5 0 -10 4 -10 8 0 9 -62
48 -72 45 -3 -1 -12 4 -18 12 -7 8 -22 15 -34 15 -12 0 -26 4 -32 10 -27 27
-217 34 -300 11z m-1052 -1057 c94 -7 316 -63 360 -90 14 -9 -49 -74 -104
-110 -52 -33 -88 -84 -88 -125 0 -39 19 -70 75 -126 133 -133 228 -282 284
-450 28 -84 35 -126 34 -203 -2 -76 -21 -135 -60 -188 -15 -20 -31 -41 -35
-47 -4 -5 -18 -23 -31 -40 -58 -75 -232 -333 -290 -429 l-35 -58 -31 45 c-17
25 -31 50 -31 55 0 6 -4 12 -8 14 -4 2 -27 35 -51 73 -24 39 -48 72 -53 73 -4
2 -8 10 -8 18 0 8 -3 14 -8 14 -4 0 -12 9 -17 19 -19 37 -123 183 -160 225 -6
6 -40 47 -75 91 -36 44 -68 82 -71 85 -3 3 -30 41 -59 85 -30 44 -57 82 -60
85 -5 5 -19 27 -73 120 -106 182 -149 347 -122 460 3 14 8 36 11 50 3 14 11
32 18 40 6 8 18 29 26 45 29 60 147 163 233 204 98 46 154 61 267 68 47 3 87
7 89 9 2 2 8 1 13 -2 6 -4 33 -8 60 -10z"/>
</g>
</svg>
